<?xml version="1.0" encoding="UTF-8" standalone="no"?>
<svg
   width="1846"
   height="882"
   preserveAspectRatio="xMidYMid"
   viewBox="0 0 1846 882"
   style="z-index:1;margin-right:-2px;display:block;animation-play-state:paused"
   version="1.1"
   id="svg100"
   sodipodi:docname="shapes-background.svg"
   inkscape:version="1.2.2 (732a01da63, 2022-12-09, custom)"
   xmlns:inkscape="http://www.inkscape.org/namespaces/inkscape"
   xmlns:sodipodi="http://sodipodi.sourceforge.net/DTD/sodipodi-0.dtd"
   xmlns="http://www.w3.org/2000/svg"
   xmlns:svg="http://www.w3.org/2000/svg">
  <defs
     id="defs104" />
  <sodipodi:namedview
     id="namedview102"
     pagecolor="#ffffff"
     bordercolor="#000000"
     borderopacity="0.25"
     inkscape:showpageshadow="2"
     inkscape:pageopacity="0.0"
     inkscape:pagecheckerboard="0"
     inkscape:deskcolor="#d1d1d1"
     showgrid="false"
     inkscape:zoom="0.70964247"
     inkscape:cx="428.38473"
     inkscape:cy="400.90611"
     inkscape:window-width="1846"
     inkscape:window-height="1016"
     inkscape:window-x="0"
     inkscape:window-y="0"
     inkscape:window-maximized="1"
     inkscape:current-layer="svg100" />
  <g
     transform="rotate(107.05103,-15.272413,354.15479)"
     id="g20">
    <path
       d="m 87.422,66.495 c -2.009,-0.544 -4.049,-0.97 -6.107,-1.283 10.617,-11.116 15.747,-27.37 13.129,-42.549 -5.236,1.77 -10.223,4.252 -14.824,7.313 -4.13,2.747 -7.948,5.961 -11.374,9.55 C 67.425,24.863 61.344,10.451 50.991,0 46.976,5.451 43.71,11.444 41.238,17.744 37.659,26.866 35.737,36.637 35.569,46.435 30.779,38.456 24.313,31.48 16.711,26.113 12.197,22.926 7.28,20.307 2.095,18.393 -1.266,35.11 4.826,53.408 17.54,64.772 c 0.369,0.33 0.745,0.654 1.126,0.972 -2.359,0.411 -4.689,0.983 -6.969,1.714 C 7.582,68.775 3.634,70.61 0,72.945 c 8.85,9.963 23.134,14.771 36.208,12.186 3.524,-0.697 7.002,-1.919 9.887,-4.057 0.073,-0.054 0.145,-0.111 0.218,-0.167 -0.987,5.662 -2.714,11.136 -5.104,16.221 l 7.509,2.806 c 1.698,-5.797 2.631,-11.748 2.814,-17.669 0.107,0.076 0.215,0.152 0.324,0.225 3.142,2.114 6.863,3.232 10.607,3.796 C 76.352,88.379 91.161,82.628 100,71.71 96.061,69.427 91.816,67.684 87.422,66.495 Z"
       fill="#ff8ca8"
       transform="scale(0.75042112)"
       id="path18" />
  </g>
  <g
     transform="rotate(-89.711273,969.70398,-197.1315)"
     id="g24">
    <path
       d="m 87.422,66.495 c -2.009,-0.544 -4.049,-0.97 -6.107,-1.283 10.617,-11.116 15.747,-27.37 13.129,-42.549 -5.236,1.77 -10.223,4.252 -14.824,7.313 -4.13,2.747 -7.948,5.961 -11.374,9.55 C 67.425,24.863 61.344,10.451 50.991,0 46.976,5.451 43.71,11.444 41.238,17.744 37.659,26.866 35.737,36.637 35.569,46.435 30.779,38.456 24.313,31.48 16.711,26.113 12.197,22.926 7.28,20.307 2.095,18.393 -1.266,35.11 4.826,53.408 17.54,64.772 c 0.369,0.33 0.745,0.654 1.126,0.972 -2.359,0.411 -4.689,0.983 -6.969,1.714 C 7.582,68.775 3.634,70.61 0,72.945 c 8.85,9.963 23.134,14.771 36.208,12.186 3.524,-0.697 7.002,-1.919 9.887,-4.057 0.073,-0.054 0.145,-0.111 0.218,-0.167 -0.987,5.662 -2.714,11.136 -5.104,16.221 l 7.509,2.806 c 1.698,-5.797 2.631,-11.748 2.814,-17.669 0.107,0.076 0.215,0.152 0.324,0.225 3.142,2.114 6.863,3.232 10.607,3.796 C 76.352,88.379 91.161,82.628 100,71.71 96.061,69.427 91.816,67.684 87.422,66.495 Z"
       fill="#ffa2ba"
       transform="scale(0.79163223)"
       id="path22" />
  </g>
  <g
     transform="rotate(103.53802,-34.344462,430.35279)"
     id="g28">
    <path
       d="m 87.422,66.495 c -2.009,-0.544 -4.049,-0.97 -6.107,-1.283 10.617,-11.116 15.747,-27.37 13.129,-42.549 -5.236,1.77 -10.223,4.252 -14.824,7.313 -4.13,2.747 -7.948,5.961 -11.374,9.55 C 67.425,24.863 61.344,10.451 50.991,0 46.976,5.451 43.71,11.444 41.238,17.744 37.659,26.866 35.737,36.637 35.569,46.435 30.779,38.456 24.313,31.48 16.711,26.113 12.197,22.926 7.28,20.307 2.095,18.393 -1.266,35.11 4.826,53.408 17.54,64.772 c 0.369,0.33 0.745,0.654 1.126,0.972 -2.359,0.411 -4.689,0.983 -6.969,1.714 C 7.582,68.775 3.634,70.61 0,72.945 c 8.85,9.963 23.134,14.771 36.208,12.186 3.524,-0.697 7.002,-1.919 9.887,-4.057 0.073,-0.054 0.145,-0.111 0.218,-0.167 -0.987,5.662 -2.714,11.136 -5.104,16.221 l 7.509,2.806 c 1.698,-5.797 2.631,-11.748 2.814,-17.669 0.107,0.076 0.215,0.152 0.324,0.225 3.142,2.114 6.863,3.232 10.607,3.796 C 76.352,88.379 91.161,82.628 100,71.71 96.061,69.427 91.816,67.684 87.422,66.495 Z"
       fill="#ffbdcd"
       transform="scale(0.82466217)"
       id="path26" />
  </g>
  <g
     transform="rotate(84.903992,1379.134,2216.0113)"
     id="g32">
    <path
       d="m 87.422,66.495 c -2.009,-0.544 -4.049,-0.97 -6.107,-1.283 10.617,-11.116 15.747,-27.37 13.129,-42.549 -5.236,1.77 -10.223,4.252 -14.824,7.313 -4.13,2.747 -7.948,5.961 -11.374,9.55 C 67.425,24.863 61.344,10.451 50.991,0 46.976,5.451 43.71,11.444 41.238,17.744 37.659,26.866 35.737,36.637 35.569,46.435 30.779,38.456 24.313,31.48 16.711,26.113 12.197,22.926 7.28,20.307 2.095,18.393 -1.266,35.11 4.826,53.408 17.54,64.772 c 0.369,0.33 0.745,0.654 1.126,0.972 -2.359,0.411 -4.689,0.983 -6.969,1.714 C 7.582,68.775 3.634,70.61 0,72.945 c 8.85,9.963 23.134,14.771 36.208,12.186 3.524,-0.697 7.002,-1.919 9.887,-4.057 0.073,-0.054 0.145,-0.111 0.218,-0.167 -0.987,5.662 -2.714,11.136 -5.104,16.221 l 7.509,2.806 c 1.698,-5.797 2.631,-11.748 2.814,-17.669 0.107,0.076 0.215,0.152 0.324,0.225 3.142,2.114 6.863,3.232 10.607,3.796 C 76.352,88.379 91.161,82.628 100,71.71 96.061,69.427 91.816,67.684 87.422,66.495 Z"
       fill="#ffbdcd"
       transform="scale(0.9463799)"
       id="path30" />
  </g>
  <g
     transform="rotate(59.808529,624.19148,1641.0174)"
     id="g36">
    <path
       d="m 87.422,66.495 c -2.009,-0.544 -4.049,-0.97 -6.107,-1.283 10.617,-11.116 15.747,-27.37 13.129,-42.549 -5.236,1.77 -10.223,4.252 -14.824,7.313 -4.13,2.747 -7.948,5.961 -11.374,9.55 C 67.425,24.863 61.344,10.451 50.991,0 46.976,5.451 43.71,11.444 41.238,17.744 37.659,26.866 35.737,36.637 35.569,46.435 30.779,38.456 24.313,31.48 16.711,26.113 12.197,22.926 7.28,20.307 2.095,18.393 -1.266,35.11 4.826,53.408 17.54,64.772 c 0.369,0.33 0.745,0.654 1.126,0.972 -2.359,0.411 -4.689,0.983 -6.969,1.714 C 7.582,68.775 3.634,70.61 0,72.945 c 8.85,9.963 23.134,14.771 36.208,12.186 3.524,-0.697 7.002,-1.919 9.887,-4.057 0.073,-0.054 0.145,-0.111 0.218,-0.167 -0.987,5.662 -2.714,11.136 -5.104,16.221 l 7.509,2.806 c 1.698,-5.797 2.631,-11.748 2.814,-17.669 0.107,0.076 0.215,0.152 0.324,0.225 3.142,2.114 6.863,3.232 10.607,3.796 C 76.352,88.379 91.161,82.628 100,71.71 96.061,69.427 91.816,67.684 87.422,66.495 Z"
       fill="#ffa2ba"
       transform="scale(0.65417799)"
       id="path34" />
  </g>
  <g
     transform="rotate(16.850357,199.84203,3517.8985)"
     id="g40">
    <path
       d="m 87.422,66.495 c -2.009,-0.544 -4.049,-0.97 -6.107,-1.283 10.617,-11.116 15.747,-27.37 13.129,-42.549 -5.236,1.77 -10.223,4.252 -14.824,7.313 -4.13,2.747 -7.948,5.961 -11.374,9.55 C 67.425,24.863 61.344,10.451 50.991,0 46.976,5.451 43.71,11.444 41.238,17.744 37.659,26.866 35.737,36.637 35.569,46.435 30.779,38.456 24.313,31.48 16.711,26.113 12.197,22.926 7.28,20.307 2.095,18.393 -1.266,35.11 4.826,53.408 17.54,64.772 c 0.369,0.33 0.745,0.654 1.126,0.972 -2.359,0.411 -4.689,0.983 -6.969,1.714 C 7.582,68.775 3.634,70.61 0,72.945 c 8.85,9.963 23.134,14.771 36.208,12.186 3.524,-0.697 7.002,-1.919 9.887,-4.057 0.073,-0.054 0.145,-0.111 0.218,-0.167 -0.987,5.662 -2.714,11.136 -5.104,16.221 l 7.509,2.806 c 1.698,-5.797 2.631,-11.748 2.814,-17.669 0.107,0.076 0.215,0.152 0.324,0.225 3.142,2.114 6.863,3.232 10.607,3.796 C 76.352,88.379 91.161,82.628 100,71.71 96.061,69.427 91.816,67.684 87.422,66.495 Z"
       fill="#ffd4df"
       transform="scale(0.97153727)"
       id="path38" />
  </g>
  <g
     transform="rotate(81.367767,-161.29099,492.03688)"
     id="g44">
    <path
       d="m 87.422,66.495 c -2.009,-0.544 -4.049,-0.97 -6.107,-1.283 10.617,-11.116 15.747,-27.37 13.129,-42.549 -5.236,1.77 -10.223,4.252 -14.824,7.313 -4.13,2.747 -7.948,5.961 -11.374,9.55 C 67.425,24.863 61.344,10.451 50.991,0 46.976,5.451 43.71,11.444 41.238,17.744 37.659,26.866 35.737,36.637 35.569,46.435 30.779,38.456 24.313,31.48 16.711,26.113 12.197,22.926 7.28,20.307 2.095,18.393 -1.266,35.11 4.826,53.408 17.54,64.772 c 0.369,0.33 0.745,0.654 1.126,0.972 -2.359,0.411 -4.689,0.983 -6.969,1.714 C 7.582,68.775 3.634,70.61 0,72.945 c 8.85,9.963 23.134,14.771 36.208,12.186 3.524,-0.697 7.002,-1.919 9.887,-4.057 0.073,-0.054 0.145,-0.111 0.218,-0.167 -0.987,5.662 -2.714,11.136 -5.104,16.221 l 7.509,2.806 c 1.698,-5.797 2.631,-11.748 2.814,-17.669 0.107,0.076 0.215,0.152 0.324,0.225 3.142,2.114 6.863,3.232 10.607,3.796 C 76.352,88.379 91.161,82.628 100,71.71 96.061,69.427 91.816,67.684 87.422,66.495 Z"
       fill="#ffbdcd"
       transform="scale(0.90687203)"
       id="path42" />
  </g>
  <g
     transform="rotate(-87.426361,527.47268,106.83756)"
     id="g52">
    <path
       d="m 87.422,66.495 c -2.009,-0.544 -4.049,-0.97 -6.107,-1.283 10.617,-11.116 15.747,-27.37 13.129,-42.549 -5.236,1.77 -10.223,4.252 -14.824,7.313 -4.13,2.747 -7.948,5.961 -11.374,9.55 C 67.425,24.863 61.344,10.451 50.991,0 46.976,5.451 43.71,11.444 41.238,17.744 37.659,26.866 35.737,36.637 35.569,46.435 30.779,38.456 24.313,31.48 16.711,26.113 12.197,22.926 7.28,20.307 2.095,18.393 -1.266,35.11 4.826,53.408 17.54,64.772 c 0.369,0.33 0.745,0.654 1.126,0.972 -2.359,0.411 -4.689,0.983 -6.969,1.714 C 7.582,68.775 3.634,70.61 0,72.945 c 8.85,9.963 23.134,14.771 36.208,12.186 3.524,-0.697 7.002,-1.919 9.887,-4.057 0.073,-0.054 0.145,-0.111 0.218,-0.167 -0.987,5.662 -2.714,11.136 -5.104,16.221 l 7.509,2.806 c 1.698,-5.797 2.631,-11.748 2.814,-17.669 0.107,0.076 0.215,0.152 0.324,0.225 3.142,2.114 6.863,3.232 10.607,3.796 C 76.352,88.379 91.161,82.628 100,71.71 96.061,69.427 91.816,67.684 87.422,66.495 Z"
       fill="#ffd4df"
       transform="scale(0.94313466)"
       id="path50" />
  </g>
  <g
     transform="rotate(134.5695,758.81677,794.94295)"
     id="g60">
    <path
       d="m 87.422,66.495 c -2.009,-0.544 -4.049,-0.97 -6.107,-1.283 10.617,-11.116 15.747,-27.37 13.129,-42.549 -5.236,1.77 -10.223,4.252 -14.824,7.313 -4.13,2.747 -7.948,5.961 -11.374,9.55 C 67.425,24.863 61.344,10.451 50.991,0 46.976,5.451 43.71,11.444 41.238,17.744 37.659,26.866 35.737,36.637 35.569,46.435 30.779,38.456 24.313,31.48 16.711,26.113 12.197,22.926 7.28,20.307 2.095,18.393 -1.266,35.11 4.826,53.408 17.54,64.772 c 0.369,0.33 0.745,0.654 1.126,0.972 -2.359,0.411 -4.689,0.983 -6.969,1.714 C 7.582,68.775 3.634,70.61 0,72.945 c 8.85,9.963 23.134,14.771 36.208,12.186 3.524,-0.697 7.002,-1.919 9.887,-4.057 0.073,-0.054 0.145,-0.111 0.218,-0.167 -0.987,5.662 -2.714,11.136 -5.104,16.221 l 7.509,2.806 c 1.698,-5.797 2.631,-11.748 2.814,-17.669 0.107,0.076 0.215,0.152 0.324,0.225 3.142,2.114 6.863,3.232 10.607,3.796 C 76.352,88.379 91.161,82.628 100,71.71 96.061,69.427 91.816,67.684 87.422,66.495 Z"
       fill="#ffa2ba"
       transform="scale(0.95277821)"
       id="path58" />
  </g>
  <g
     transform="rotate(34.982147,-307.49683,1006.7008)"
     id="g64">
    <path
       d="m 87.422,66.495 c -2.009,-0.544 -4.049,-0.97 -6.107,-1.283 10.617,-11.116 15.747,-27.37 13.129,-42.549 -5.236,1.77 -10.223,4.252 -14.824,7.313 -4.13,2.747 -7.948,5.961 -11.374,9.55 C 67.425,24.863 61.344,10.451 50.991,0 46.976,5.451 43.71,11.444 41.238,17.744 37.659,26.866 35.737,36.637 35.569,46.435 30.779,38.456 24.313,31.48 16.711,26.113 12.197,22.926 7.28,20.307 2.095,18.393 -1.266,35.11 4.826,53.408 17.54,64.772 c 0.369,0.33 0.745,0.654 1.126,0.972 -2.359,0.411 -4.689,0.983 -6.969,1.714 C 7.582,68.775 3.634,70.61 0,72.945 c 8.85,9.963 23.134,14.771 36.208,12.186 3.524,-0.697 7.002,-1.919 9.887,-4.057 0.073,-0.054 0.145,-0.111 0.218,-0.167 -0.987,5.662 -2.714,11.136 -5.104,16.221 l 7.509,2.806 c 1.698,-5.797 2.631,-11.748 2.814,-17.669 0.107,0.076 0.215,0.152 0.324,0.225 3.142,2.114 6.863,3.232 10.607,3.796 C 76.352,88.379 91.161,82.628 100,71.71 96.061,69.427 91.816,67.684 87.422,66.495 Z"
       fill="#ffbdcd"
       transform="scale(1.1027134)"
       id="path62" />
  </g>
  <g
     transform="rotate(-55.446198,1090.4894,-935.10751)"
     id="g68">
    <path
       d="m 87.422,66.495 c -2.009,-0.544 -4.049,-0.97 -6.107,-1.283 10.617,-11.116 15.747,-27.37 13.129,-42.549 -5.236,1.77 -10.223,4.252 -14.824,7.313 -4.13,2.747 -7.948,5.961 -11.374,9.55 C 67.425,24.863 61.344,10.451 50.991,0 46.976,5.451 43.71,11.444 41.238,17.744 37.659,26.866 35.737,36.637 35.569,46.435 30.779,38.456 24.313,31.48 16.711,26.113 12.197,22.926 7.28,20.307 2.095,18.393 -1.266,35.11 4.826,53.408 17.54,64.772 c 0.369,0.33 0.745,0.654 1.126,0.972 -2.359,0.411 -4.689,0.983 -6.969,1.714 C 7.582,68.775 3.634,70.61 0,72.945 c 8.85,9.963 23.134,14.771 36.208,12.186 3.524,-0.697 7.002,-1.919 9.887,-4.057 0.073,-0.054 0.145,-0.111 0.218,-0.167 -0.987,5.662 -2.714,11.136 -5.104,16.221 l 7.509,2.806 c 1.698,-5.797 2.631,-11.748 2.814,-17.669 0.107,0.076 0.215,0.152 0.324,0.225 3.142,2.114 6.863,3.232 10.607,3.796 C 76.352,88.379 91.161,82.628 100,71.71 96.061,69.427 91.816,67.684 87.422,66.495 Z"
       fill="#ffbdcd"
       transform="scale(0.93284156)"
       id="path66" />
  </g>
  <g
     transform="rotate(-139.75024,695.20565,220.24764)"
     id="g72">
    <path
       d="m 87.422,66.495 c -2.009,-0.544 -4.049,-0.97 -6.107,-1.283 10.617,-11.116 15.747,-27.37 13.129,-42.549 -5.236,1.77 -10.223,4.252 -14.824,7.313 -4.13,2.747 -7.948,5.961 -11.374,9.55 C 67.425,24.863 61.344,10.451 50.991,0 46.976,5.451 43.71,11.444 41.238,17.744 37.659,26.866 35.737,36.637 35.569,46.435 30.779,38.456 24.313,31.48 16.711,26.113 12.197,22.926 7.28,20.307 2.095,18.393 -1.266,35.11 4.826,53.408 17.54,64.772 c 0.369,0.33 0.745,0.654 1.126,0.972 -2.359,0.411 -4.689,0.983 -6.969,1.714 C 7.582,68.775 3.634,70.61 0,72.945 c 8.85,9.963 23.134,14.771 36.208,12.186 3.524,-0.697 7.002,-1.919 9.887,-4.057 0.073,-0.054 0.145,-0.111 0.218,-0.167 -0.987,5.662 -2.714,11.136 -5.104,16.221 l 7.509,2.806 c 1.698,-5.797 2.631,-11.748 2.814,-17.669 0.107,0.076 0.215,0.152 0.324,0.225 3.142,2.114 6.863,3.232 10.607,3.796 C 76.352,88.379 91.161,82.628 100,71.71 96.061,69.427 91.816,67.684 87.422,66.495 Z"
       fill="#ffbdcd"
       transform="scale(0.79622903)"
       id="path70" />
  </g>
  <g
     transform="rotate(66.023071,836.53473,1444.0859)"
     id="g76">
    <path
       d="m 87.422,66.495 c -2.009,-0.544 -4.049,-0.97 -6.107,-1.283 10.617,-11.116 15.747,-27.37 13.129,-42.549 -5.236,1.77 -10.223,4.252 -14.824,7.313 -4.13,2.747 -7.948,5.961 -11.374,9.55 C 67.425,24.863 61.344,10.451 50.991,0 46.976,5.451 43.71,11.444 41.238,17.744 37.659,26.866 35.737,36.637 35.569,46.435 30.779,38.456 24.313,31.48 16.711,26.113 12.197,22.926 7.28,20.307 2.095,18.393 -1.266,35.11 4.826,53.408 17.54,64.772 c 0.369,0.33 0.745,0.654 1.126,0.972 -2.359,0.411 -4.689,0.983 -6.969,1.714 C 7.582,68.775 3.634,70.61 0,72.945 c 8.85,9.963 23.134,14.771 36.208,12.186 3.524,-0.697 7.002,-1.919 9.887,-4.057 0.073,-0.054 0.145,-0.111 0.218,-0.167 -0.987,5.662 -2.714,11.136 -5.104,16.221 l 7.509,2.806 c 1.698,-5.797 2.631,-11.748 2.814,-17.669 0.107,0.076 0.215,0.152 0.324,0.225 3.142,2.114 6.863,3.232 10.607,3.796 C 76.352,88.379 91.161,82.628 100,71.71 96.061,69.427 91.816,67.684 87.422,66.495 Z"
       fill="#ffd4df"
       transform="scale(0.58206895)"
       id="path74" />
  </g>
  <g
     transform="rotate(38.234406,114.10222,1372.0529)"
     id="g80">
    <path
       d="m 87.422,66.495 c -2.009,-0.544 -4.049,-0.97 -6.107,-1.283 10.617,-11.116 15.747,-27.37 13.129,-42.549 -5.236,1.77 -10.223,4.252 -14.824,7.313 -4.13,2.747 -7.948,5.961 -11.374,9.55 C 67.425,24.863 61.344,10.451 50.991,0 46.976,5.451 43.71,11.444 41.238,17.744 37.659,26.866 35.737,36.637 35.569,46.435 30.779,38.456 24.313,31.48 16.711,26.113 12.197,22.926 7.28,20.307 2.095,18.393 -1.266,35.11 4.826,53.408 17.54,64.772 c 0.369,0.33 0.745,0.654 1.126,0.972 -2.359,0.411 -4.689,0.983 -6.969,1.714 C 7.582,68.775 3.634,70.61 0,72.945 c 8.85,9.963 23.134,14.771 36.208,12.186 3.524,-0.697 7.002,-1.919 9.887,-4.057 0.073,-0.054 0.145,-0.111 0.218,-0.167 -0.987,5.662 -2.714,11.136 -5.104,16.221 l 7.509,2.806 c 1.698,-5.797 2.631,-11.748 2.814,-17.669 0.107,0.076 0.215,0.152 0.324,0.225 3.142,2.114 6.863,3.232 10.607,3.796 C 76.352,88.379 91.161,82.628 100,71.71 96.061,69.427 91.816,67.684 87.422,66.495 Z"
       fill="#ffbdcd"
       transform="scale(0.73567179)"
       id="path78" />
  </g>
  <g
     transform="rotate(23.036667,-94.141671,523.94859)"
     id="g84">
    <path
       d="m 87.422,66.495 c -2.009,-0.544 -4.049,-0.97 -6.107,-1.283 10.617,-11.116 15.747,-27.37 13.129,-42.549 -5.236,1.77 -10.223,4.252 -14.824,7.313 -4.13,2.747 -7.948,5.961 -11.374,9.55 C 67.425,24.863 61.344,10.451 50.991,0 46.976,5.451 43.71,11.444 41.238,17.744 37.659,26.866 35.737,36.637 35.569,46.435 30.779,38.456 24.313,31.48 16.711,26.113 12.197,22.926 7.28,20.307 2.095,18.393 -1.266,35.11 4.826,53.408 17.54,64.772 c 0.369,0.33 0.745,0.654 1.126,0.972 -2.359,0.411 -4.689,0.983 -6.969,1.714 C 7.582,68.775 3.634,70.61 0,72.945 c 8.85,9.963 23.134,14.771 36.208,12.186 3.524,-0.697 7.002,-1.919 9.887,-4.057 0.073,-0.054 0.145,-0.111 0.218,-0.167 -0.987,5.662 -2.714,11.136 -5.104,16.221 l 7.509,2.806 c 1.698,-5.797 2.631,-11.748 2.814,-17.669 0.107,0.076 0.215,0.152 0.324,0.225 3.142,2.114 6.863,3.232 10.607,3.796 C 76.352,88.379 91.161,82.628 100,71.71 96.061,69.427 91.816,67.684 87.422,66.495 Z"
       fill="#ffd4df"
       transform="scale(0.50287796)"
       id="path82" />
  </g>
  <g
     transform="rotate(-69.637146,1198.9385,-693.45116)"
     id="g88">
    <path
       d="m 87.422,66.495 c -2.009,-0.544 -4.049,-0.97 -6.107,-1.283 10.617,-11.116 15.747,-27.37 13.129,-42.549 -5.236,1.77 -10.223,4.252 -14.824,7.313 -4.13,2.747 -7.948,5.961 -11.374,9.55 C 67.425,24.863 61.344,10.451 50.991,0 46.976,5.451 43.71,11.444 41.238,17.744 37.659,26.866 35.737,36.637 35.569,46.435 30.779,38.456 24.313,31.48 16.711,26.113 12.197,22.926 7.28,20.307 2.095,18.393 -1.266,35.11 4.826,53.408 17.54,64.772 c 0.369,0.33 0.745,0.654 1.126,0.972 -2.359,0.411 -4.689,0.983 -6.969,1.714 C 7.582,68.775 3.634,70.61 0,72.945 c 8.85,9.963 23.134,14.771 36.208,12.186 3.524,-0.697 7.002,-1.919 9.887,-4.057 0.073,-0.054 0.145,-0.111 0.218,-0.167 -0.987,5.662 -2.714,11.136 -5.104,16.221 l 7.509,2.806 c 1.698,-5.797 2.631,-11.748 2.814,-17.669 0.107,0.076 0.215,0.152 0.324,0.225 3.142,2.114 6.863,3.232 10.607,3.796 C 76.352,88.379 91.161,82.628 100,71.71 96.061,69.427 91.816,67.684 87.422,66.495 Z"
       fill="#ffa2ba"
       transform="scale(1.0132318)"
       id="path86" />
  </g>
  <g
     transform="rotate(-163.1225,889.53412,320.51635)"
     id="g92">
    <path
       d="m 87.422,66.495 c -2.009,-0.544 -4.049,-0.97 -6.107,-1.283 10.617,-11.116 15.747,-27.37 13.129,-42.549 -5.236,1.77 -10.223,4.252 -14.824,7.313 -4.13,2.747 -7.948,5.961 -11.374,9.55 C 67.425,24.863 61.344,10.451 50.991,0 46.976,5.451 43.71,11.444 41.238,17.744 37.659,26.866 35.737,36.637 35.569,46.435 30.779,38.456 24.313,31.48 16.711,26.113 12.197,22.926 7.28,20.307 2.095,18.393 -1.266,35.11 4.826,53.408 17.54,64.772 c 0.369,0.33 0.745,0.654 1.126,0.972 -2.359,0.411 -4.689,0.983 -6.969,1.714 C 7.582,68.775 3.634,70.61 0,72.945 c 8.85,9.963 23.134,14.771 36.208,12.186 3.524,-0.697 7.002,-1.919 9.887,-4.057 0.073,-0.054 0.145,-0.111 0.218,-0.167 -0.987,5.662 -2.714,11.136 -5.104,16.221 l 7.509,2.806 c 1.698,-5.797 2.631,-11.748 2.814,-17.669 0.107,0.076 0.215,0.152 0.324,0.225 3.142,2.114 6.863,3.232 10.607,3.796 C 76.352,88.379 91.161,82.628 100,71.71 96.061,69.427 91.816,67.684 87.422,66.495 Z"
       fill="#ffbdcd"
       transform="scale(1.0766204)"
       id="path90" />
  </g>
  <g
     transform="rotate(52.482372,782.4025,1612.9787)"
     id="g96">
    <path
       d="m 87.422,66.495 c -2.009,-0.544 -4.049,-0.97 -6.107,-1.283 10.617,-11.116 15.747,-27.37 13.129,-42.549 -5.236,1.77 -10.223,4.252 -14.824,7.313 -4.13,2.747 -7.948,5.961 -11.374,9.55 C 67.425,24.863 61.344,10.451 50.991,0 46.976,5.451 43.71,11.444 41.238,17.744 37.659,26.866 35.737,36.637 35.569,46.435 30.779,38.456 24.313,31.48 16.711,26.113 12.197,22.926 7.28,20.307 2.095,18.393 -1.266,35.11 4.826,53.408 17.54,64.772 c 0.369,0.33 0.745,0.654 1.126,0.972 -2.359,0.411 -4.689,0.983 -6.969,1.714 C 7.582,68.775 3.634,70.61 0,72.945 c 8.85,9.963 23.134,14.771 36.208,12.186 3.524,-0.697 7.002,-1.919 9.887,-4.057 0.073,-0.054 0.145,-0.111 0.218,-0.167 -0.987,5.662 -2.714,11.136 -5.104,16.221 l 7.509,2.806 c 1.698,-5.797 2.631,-11.748 2.814,-17.669 0.107,0.076 0.215,0.152 0.324,0.225 3.142,2.114 6.863,3.232 10.607,3.796 C 76.352,88.379 91.161,82.628 100,71.71 96.061,69.427 91.816,67.684 87.422,66.495 Z"
       fill="#ffd4df"
       transform="scale(0.64797474)"
       id="path94" />
  </g>
  <g
     transform="rotate(-146.50299,306.47904,77.301521)"
     id="g48"
     style="display:block">
    <path
       d="m 257.84223,-4.3314538 c -1.2164,-0.32938 -2.45158,-0.587314 -3.69766,-0.776829 6.42837,-6.7304982 9.53447,-16.5719462 7.94933,-25.7625032 -3.17028,1.071696 -6.1898,2.574494 -8.97561,4.427864 -2.50063,1.663249 -4.81234,3.609257 -6.88671,5.782319 -0.4971,-8.878131 -4.17902,-17.604287 -10.44753,-23.932142 -2.431,3.300463 -4.40849,6.929095 -5.90524,10.74361 -2.167,5.523175 -3.33073,11.439305 -3.43245,17.371783 -2.90025,-4.831113 -6.81527,-9.054931 -11.41812,-12.304534 -2.73313,-1.92966 -5.71026,-3.515408 -8.84967,-4.674294 -2.03501,10.121784 1.65356,21.200829 9.35161,28.0814872 0.22343,0.199808 0.45109,0.395983 0.68177,0.588525 -1.42832,0.248852 -2.83909,0.595185 -4.21958,1.03779 -2.49154,0.797415 -4.88197,1.908468 -7.08228,3.32226004 5.35849,6.03238296 14.00714,8.94352296 21.92317,7.37836096 2.1337,-0.422018 4.23956,-1.161913 5.98636,-2.456426 0.0442,-0.0327 0.0878,-0.06721 0.132,-0.101115 -0.59761,3.428219 -1.64327,6.7426078 -3.09037,9.8214668 l 4.54654,1.698972 c 1.02811,-3.509959 1.59302,-7.1131608 1.70382,-10.6981988 0.0648,0.04602 0.13018,0.09203 0.19617,0.136233 1.90242,1.279981 4.1554,1.956906 6.42231,2.298396 8.4095,1.267266 17.37603,-2.21484 22.72785,-8.825454 -2.38498,-1.382308 -4.95524,-2.437657 -7.61571,-3.157571 z"
       fill="#ffaec2"
       id="path46"
       style="stroke-width:0.605478" />
  </g>
</svg>
